<?xml version="1.0" encoding="UTF-8"?>
<svg width="32px" height="32px" viewBox="0 0 32 32" version="1.1" xmlns="http://www.w3.org/2000/svg" xmlns:xlink="http://www.w3.org/1999/xlink">
    <title>Artboard</title>
    <g id="Artboard" stroke="none" stroke-width="1" fill="none" fill-rule="evenodd" opacity="0.25">
        <path d="M16,0 C24.836556,0 32,7.163444 32,16 C32,24.836556 24.836556,32 16,32 C7.163444,32 0,24.836556 0,16 C0,7.163444 7.163444,0 16,0 Z M22.76,11.74 L22.76,11.74 L21.3,13.2 C21.74,14.04 22,14.99 22,16 C22,19.31 19.31,22 16,22 L16,19 L12,23 L16,27 L16,24 C20.42,24 24,20.42 24,16 C24,14.43 23.54,12.97 22.76,11.74 Z M16,5 L16,8 C11.58,8 8,11.58 8,16 C8,17.57 8.46,19.03 9.24,20.26 L10.7,18.8 C10.25,17.97 10,17.01 10,16 C10,12.69 12.69,10 16,10 L16,13 L20,9 L16,5 Z" id="Combined-Shape" fill="#000000"></path>
    </g>
</svg>